<svg width="97" height="88" viewBox="0 0 97 88" fill="none" xmlns="http://www.w3.org/2000/svg">
    <mask id="path-1-inside-1_1290_13130" fill="white">
        <rect y="15" width="76" height="73" rx="7"/>
    </mask>
    <rect y="15" width="76" height="73" rx="7" stroke="#FF8000" stroke-width="16" mask="url(#path-1-inside-1_1290_13130)"/>
    <path d="M52.9657 67.7189C52.7959 68.014 52.5704 68.272 52.3022 68.4779C52.0341 68.6838 51.7286 68.8336 51.4033 68.9187C51.0781 69.0037 50.7395 69.0223 50.4072 68.9734C50.0748 68.9244 49.7553 68.809 49.467 68.6336C46.001 66.4955 42.0519 66.0005 38 66C33.9478 66.0003 29.9477 66.4954 26.4816 68.6336C25.9055 68.9005 25.2534 68.9388 24.6512 68.7416C24.0484 68.5435 23.5393 68.1244 23.2225 67.5656C22.9055 67.006 22.8021 66.347 22.9322 65.7146C23.0623 65.0823 23.4167 64.521 23.9276 64.1383C28.167 61.5332 33.0238 60.1561 37.9747 60.1554C42.9228 60.1554 47.7779 61.5318 52.0209 64.1383C52.3141 64.3091 52.5712 64.5374 52.7772 64.8101C52.9833 65.0827 53.1343 65.3943 53.2214 65.7267C53.3989 66.399 53.3064 67.1155 52.9657 67.7189ZM24.4899 41.0017L23.7233 40.2434L24.4899 39.4852C24.9717 38.9922 25.2422 38.3248 25.2422 37.6292C25.2422 36.9335 24.9717 36.2661 24.4899 35.7731C24.2522 35.5296 23.9696 35.3365 23.6584 35.2046C23.3472 35.0728 23.0134 35.0049 22.6764 35.0049C22.3393 35.0049 22.0056 35.0728 21.6944 35.2046C21.3832 35.3365 21.1006 35.5296 20.8629 35.7731L20.1225 36.5579L19.382 35.7731C19.1443 35.5296 18.8617 35.3365 18.5505 35.2046C18.2393 35.0728 17.9056 35.0049 17.5685 35.0049C17.2315 35.0049 16.8977 35.0728 16.5865 35.2046C16.2753 35.3365 15.9927 35.5296 15.755 35.7731C15.2734 36.2662 15.0031 36.9335 15.0031 37.6292C15.0031 38.3248 15.2734 38.9921 15.755 39.4852L16.5216 40.2442L15.755 41.0017C15.5153 41.2451 15.3252 41.5344 15.1956 41.8529C15.066 42.1714 14.9995 42.5129 15 42.8577C15.0001 43.5539 15.2717 44.2216 15.755 44.7138C15.9922 44.9583 16.2745 45.1526 16.5858 45.2853C16.8971 45.418 17.2311 45.4865 17.5685 45.4869C17.9059 45.4869 18.2399 45.4186 18.5511 45.2859C18.8623 45.1531 19.1445 44.9587 19.3812 44.7138L20.1225 43.9297L20.8629 44.7138C21.1 44.9584 21.3824 45.1526 21.6937 45.2853C22.0049 45.418 22.339 45.4865 22.6764 45.4869C23.0138 45.4869 23.3478 45.4186 23.659 45.2859C23.9702 45.1531 24.2524 44.9587 24.4891 44.7138C24.7291 44.4705 24.9194 44.1813 25.0491 43.8627C25.1788 43.5442 25.2454 43.2026 25.2449 42.8577C25.2449 42.513 25.1782 42.1717 25.0486 41.8532C24.9191 41.5347 24.7292 41.2454 24.4899 41.0017ZM60.2449 35.7731C60.0078 35.5285 59.7254 35.3343 59.4142 35.2016C59.1029 35.0689 58.7689 35.0004 58.4315 35C58.0941 35 57.7601 35.0683 57.4489 35.201C57.1377 35.3338 56.8555 35.5282 56.6187 35.7731L55.8775 36.5579L55.1371 35.7731C54.8994 35.5296 54.6168 35.3365 54.3056 35.2046C53.9944 35.0728 53.6607 35.0049 53.3236 35.0049C52.9865 35.0049 52.6528 35.0728 52.3416 35.2046C52.0304 35.3365 51.7478 35.5296 51.5101 35.7731C51.0283 36.2661 50.7578 36.9335 50.7578 37.6292C50.7578 38.3248 51.0283 38.9922 51.5101 39.4852L52.2767 40.2442L51.5101 41.0017C51.2703 41.245 51.0801 41.5343 50.9505 41.8528C50.8209 42.1714 50.7545 42.5129 50.7551 42.8577C50.7552 43.5539 51.0268 44.2216 51.5101 44.7138C51.7472 44.9584 52.0296 45.1526 52.3409 45.2853C52.6521 45.418 52.9862 45.4865 53.3236 45.4869C53.661 45.4869 53.995 45.4186 54.3062 45.2859C54.6174 45.1531 54.8996 44.9587 55.1363 44.7138L55.8775 43.9297L56.618 44.7138C56.8551 44.9584 57.1375 45.1526 57.4487 45.2853C57.76 45.418 58.094 45.4865 58.4315 45.4869C58.7688 45.4869 59.1028 45.4186 59.4141 45.2859C59.7253 45.1531 60.0075 44.9587 60.2442 44.7138C60.4841 44.4705 60.6745 44.1813 60.8042 43.8627C60.9339 43.5442 61.0005 43.2026 61 42.8577C61 42.513 60.9333 42.1717 60.8037 41.8532C60.6742 41.5347 60.4843 41.2454 60.2449 41.0017L59.4784 40.2434L60.2449 39.4852C60.4847 39.2418 60.6748 38.9525 60.8044 38.634C60.934 38.3155 61.0005 37.974 61 37.6292C60.9999 36.933 60.7283 36.2653 60.2449 35.7731Z" fill="#FF8000"/>
    <path d="M62.555 29.0195L77.1353 3.09893C77.8999 1.73963 79.857 1.73964 80.6216 3.09894L95.2019 29.0195C95.9518 30.3527 94.9884 32 93.4587 32H64.2981C62.7685 32 61.805 30.3527 62.555 29.0195Z" fill="#F9234A"/>
    <rect x="77.2195" y="8.94922" width="3.11765" height="14.9647" rx="1.55882" fill="white"/>
    <circle cx="78.7782" cy="26.8913" r="1.84829" fill="white"/>
</svg>
